<?xml version="1.0" encoding="UTF-8"?>
<!-- RegulonDB — wordmark v1.1 (paths). Regenerate with scripts/build-logo.mjs. -->
<svg xmlns="http://www.w3.org/2000/svg" viewBox="0 0 1156 200" role="img" aria-label="RegulonDB">
  <title>RegulonDB</title>
  <path d="M 773 32 L 1003 32 L 1003 4 L 1148 100 L 1003 196 L 1003 168 L 773 168 Z" fill="#3D779B"/>
  <line x1="769" y1="100" x2="1142" y2="100" stroke="#FFFFFF" stroke-width="2" opacity="0.85"/>
  <path d="M51.31 158L13.10 158L13.10 34.88L76.51 34.88Q94.15 34.88 103.47 37.90Q112.79 40.93 118.50 49.11Q124.21 57.30 124.21 69.06L124.21 69.06Q124.21 79.31 119.85 86.74Q115.48 94.17 107.84 98.79L107.84 98.79Q102.96 101.73 94.48 103.66L94.48 103.66Q101.29 105.93 104.39 108.20L104.39 108.20Q106.49 109.71 110.48 114.66Q114.47 119.62 115.81 122.31L115.81 122.31L134.21 158L91.21 158L70.88 120.38Q67.02 113.07 64.00 110.88L64.00 110.88Q59.88 108.03 54.67 108.03L54.67 108.03L51.31 108.03L51.31 158ZM51.31 59.74L51.31 84.77L67.36 84.77Q69.96 84.77 77.43 83.09L77.43 83.09Q81.21 82.33 83.61 79.22Q86 76.12 86 72.08L86 72.08Q86 66.12 82.22 62.93Q78.44 59.74 68.03 59.74L68.03 59.74L51.31 59.74ZM243.13 118.02L243.13 121.89L174.60 121.89Q175.53 130.12 179.05 134.15L179.05 134.15Q184.01 139.94 191.99 139.94L191.99 139.94Q197.03 139.94 201.56 137.42L201.56 137.42Q204.33 135.83 207.53 131.80L207.53 131.80L241.20 134.90Q233.48 148.34 222.56 154.18Q211.64 160.02 191.23 160.02L191.23 160.02Q173.51 160.02 163.35 155.02Q153.19 150.02 146.51 139.15Q139.83 128.27 139.83 113.57L139.83 113.57Q139.83 92.66 153.23 79.73Q166.63 66.79 190.22 66.79L190.22 66.79Q209.37 66.79 220.46 72.59Q231.54 78.38 237.34 89.38Q243.13 100.39 243.13 118.02L243.13 118.02ZM174.69 105.51L208.37 105.51Q207.36 95.60 203.03 91.32Q198.71 87.03 191.65 87.03L191.65 87.03Q183.51 87.03 178.63 93.50L178.63 93.50Q175.53 97.53 174.69 105.51L174.69 105.51ZM320.90 81.99L320.90 68.81L352.90 68.81L352.90 153.04L352.99 156.99Q352.99 165.39 349.42 172.99Q345.85 180.59 339.93 185.29Q334.01 190.00 324.89 192.10Q315.78 194.20 304.02 194.20L304.02 194.20Q277.15 194.20 267.11 186.13Q257.08 178.07 257.08 164.55L257.08 164.55Q257.08 162.87 257.24 160.02L257.24 160.02L290.42 163.79Q291.68 168.41 294.28 170.18L294.28 170.18Q298.06 172.78 303.77 172.78L303.77 172.78Q311.16 172.78 314.82 168.83Q318.47 164.89 318.47 155.06L318.47 155.06L318.47 141.54Q313.43 147.50 308.39 150.19L308.39 150.19Q300.50 154.39 291.34 154.39L291.34 154.39Q273.45 154.39 262.45 138.77L262.45 138.77Q254.64 127.68 254.64 109.46L254.64 109.46Q254.64 88.63 264.72 77.71Q274.80 66.79 291.09 66.79L291.09 66.79Q301.50 66.79 308.26 70.32Q315.03 73.85 320.90 81.99L320.90 81.99ZM288.74 112.06L288.74 112.06Q288.74 121.72 292.85 126.38Q296.97 131.04 303.69 131.04L303.69 131.04Q310.07 131.04 314.40 126.21Q318.72 121.38 318.72 111.64L318.72 111.64Q318.72 101.90 314.19 96.73Q309.65 91.57 303.10 91.57L303.10 91.57Q296.55 91.57 292.64 96.31Q288.74 101.06 288.74 112.06ZM467.54 68.81L467.54 158L435.63 158L435.63 143.55Q428.49 152.46 421.22 156.24Q413.96 160.02 403.38 160.02L403.38 160.02Q389.27 160.02 381.25 151.58Q373.23 143.13 373.23 125.58L373.23 125.58L373.23 68.81L407.58 68.81L407.58 117.86Q407.58 126.25 410.68 129.78Q413.79 133.31 419.42 133.31L419.42 133.31Q425.55 133.31 429.45 128.61Q433.36 123.90 433.36 111.72L433.36 111.72L433.36 68.81L467.54 68.81ZM489.46 158L489.46 34.88L523.73 34.88L523.73 158L489.46 158ZM541.36 113.66L541.36 113.66Q541.36 93.25 555.14 80.02Q568.91 66.79 592.34 66.79L592.34 66.79Q619.13 66.79 632.82 82.33L632.82 82.33Q643.82 94.84 643.82 113.15L643.82 113.15Q643.82 133.73 630.18 146.87Q616.53 160.02 592.43 160.02L592.43 160.02Q570.93 160.02 557.66 149.10L557.66 149.10Q541.36 135.58 541.36 113.66ZM575.63 113.57L575.63 113.57Q575.63 125.50 580.46 131.21Q585.29 136.92 592.59 136.92L592.59 136.92Q599.98 136.92 604.73 131.29Q609.47 125.67 609.47 113.24L609.47 113.24Q609.47 101.65 604.69 95.98Q599.90 90.31 592.85 90.31L592.85 90.31Q585.37 90.31 580.50 96.06Q575.63 101.81 575.63 113.57ZM660.29 158L660.29 68.81L692.12 68.81L692.12 83.34Q699.25 74.44 706.56 70.61Q713.87 66.79 724.37 66.79L724.37 66.79Q738.56 66.79 746.58 75.23Q754.60 83.67 754.60 101.31L754.60 101.31L754.60 158L720.25 158L720.25 108.95Q720.25 100.55 717.14 97.07Q714.04 93.58 708.41 93.58L708.41 93.58Q702.19 93.58 698.33 98.29Q694.47 102.99 694.47 115.17L694.47 115.17L694.47 158L660.29 158Z" fill="#FFFFFF"/>
  <g transform="translate(792, 0)"><path d="M38.47 148L5.65 148L25.14 54.94L50.21 54.94Q60.68 54.94 63.60 55.26L63.60 55.26Q69.38 55.83 73.92 57.61Q78.46 59.39 82.17 62.59Q85.88 65.80 88.58 70.30Q91.28 74.81 92.74 80.68Q94.20 86.55 94.20 93.54L94.20 93.54Q94.20 108.58 88.45 120.23Q82.71 131.88 74.01 138.73L74.01 138.73Q67.35 144.06 56.81 146.60L56.81 146.60Q50.84 148 38.47 148L38.47 148ZM41.01 70.30L27.93 133.02L37.64 133.02Q48.18 133.02 52.91 131.72Q57.64 130.42 61.57 126.86L61.57 126.86Q67.22 121.72 71.09 113.15Q74.97 104.58 74.97 92.97L74.97 92.97Q74.97 83.06 71.76 78.08Q68.55 73.10 63.86 71.45L63.86 71.45Q60.56 70.30 52.11 70.30L52.11 70.30L41.01 70.30ZM142.95 148L99.09 148L118.57 54.94L150.38 54.94Q160.72 54.94 164.85 55.58L164.85 55.58Q171.70 56.53 176.46 59.39Q181.23 62.24 183.70 67.00Q186.18 71.76 186.18 77.54L186.18 77.54Q186.18 85.29 181.86 90.97Q177.54 96.65 168.53 99.57L168.53 99.57Q175.70 101.54 179.73 106.58Q183.76 111.63 183.76 117.98L183.76 117.98Q183.76 126.35 179.00 133.88Q174.24 141.40 165.86 144.70Q157.49 148 142.95 148L142.95 148ZM134.44 70.50L129.81 92.52L144.41 92.52Q154.25 92.52 158.56 91.13Q162.88 89.73 165.04 86.55Q167.20 83.38 167.20 79.76L167.20 79.76Q167.20 76.21 165.17 73.92Q163.13 71.64 159.39 70.88L159.39 70.88Q157.29 70.50 149.30 70.50L149.30 70.50L134.44 70.50ZM126.45 108.71L121.37 133.02L139.84 133.02Q151.46 133.02 155.42 131.53Q159.39 130.04 161.77 126.61Q164.15 123.18 164.15 119.37L164.15 119.37Q164.15 114.74 160.72 111.72Q157.29 108.71 149.30 108.71L149.30 108.71L126.45 108.71Z" fill="#FFFFFF"/></g>
</svg>
