<?xml version="1.0" encoding="UTF-8"?>
<svg xmlns="http://www.w3.org/2000/svg" viewBox="0 0 383 200" role="img" aria-label="RegulonDB">
  <title>RegulonDB</title>
  <path d="M 0 32 L 230 32 L 230 4 L 375 100 L 230 196 L 230 168 L 0 168 Z" fill="#32617D"/>
  <line x1="-4" y1="100" x2="369" y2="100" stroke="#FFFFFF" stroke-width="2" opacity="0.85"/>
  <g transform="translate(19, 0)"><path d="M38.47 148L5.65 148L25.14 54.94L50.21 54.94Q60.68 54.94 63.60 55.26L63.60 55.26Q69.38 55.83 73.92 57.61Q78.46 59.39 82.17 62.59Q85.88 65.80 88.58 70.30Q91.28 74.81 92.74 80.68Q94.20 86.55 94.20 93.54L94.20 93.54Q94.20 108.58 88.45 120.23Q82.71 131.88 74.01 138.73L74.01 138.73Q67.35 144.06 56.81 146.60L56.81 146.60Q50.84 148 38.47 148L38.47 148ZM41.01 70.30L27.93 133.02L37.64 133.02Q48.18 133.02 52.91 131.72Q57.64 130.42 61.57 126.86L61.57 126.86Q67.22 121.72 71.09 113.15Q74.97 104.58 74.97 92.97L74.97 92.97Q74.97 83.06 71.76 78.08Q68.55 73.10 63.86 71.45L63.86 71.45Q60.56 70.30 52.11 70.30L52.11 70.30L41.01 70.30ZM142.95 148L99.09 148L118.57 54.94L150.38 54.94Q160.72 54.94 164.85 55.58L164.85 55.58Q171.70 56.53 176.46 59.39Q181.23 62.24 183.70 67.00Q186.18 71.76 186.18 77.54L186.18 77.54Q186.18 85.29 181.86 90.97Q177.54 96.65 168.53 99.57L168.53 99.57Q175.70 101.54 179.73 106.58Q183.76 111.63 183.76 117.98L183.76 117.98Q183.76 126.35 179.00 133.88Q174.24 141.40 165.86 144.70Q157.49 148 142.95 148L142.95 148ZM134.44 70.50L129.81 92.52L144.41 92.52Q154.25 92.52 158.56 91.13Q162.88 89.73 165.04 86.55Q167.20 83.38 167.20 79.76L167.20 79.76Q167.20 76.21 165.17 73.92Q163.13 71.64 159.39 70.88L159.39 70.88Q157.29 70.50 149.30 70.50L149.30 70.50L134.44 70.50ZM126.45 108.71L121.37 133.02L139.84 133.02Q151.46 133.02 155.42 131.53Q159.39 130.04 161.77 126.61Q164.15 123.18 164.15 119.37L164.15 119.37Q164.15 114.74 160.72 111.72Q157.29 108.71 149.30 108.71L149.30 108.71L126.45 108.71Z" fill="#FFFFFF"/></g>
</svg>
